# xmcd
#
# Track frame offsets:
#	150
#	18712
#	32715
#	43755
#	59502
#	75137
#	88490
#	102502
#	120930
#	140542
#	155972
#	167497
#
# Disc length: 2423 seconds
#
# Revision: 1
# Processed by: cddbd v1.5.1PL0 Copyright (c) Steve Scherf et al.
# Submitted via: audiograbber 1.83.01
#
DISCID=9e09750c
DTITLE=Eigil 'Gillie' Larsen - My Tribute To Waylon Jennings
DYEAR=2005
DGENRE=Country
TTITLE0=Amanda
TTITLE1=Mental Revenge
TTITLE2=Only Daddy
TTITLE3=Luckenback Texas
TTITLE4=Mammas, Don't Cry....
TTITLE5=Lucille
TTITLE6=Just To Satisfy You
TTITLE7=A Good Hearted Woman
TTITLE8=Storms Never Last
TTITLE9=Lonesome On'ry And Mean
TTITLE10=Time To Burn Again
TTITLE11=Anita You're Dreaming
EXTD=
EXTT0=
EXTT1=
EXTT2=
EXTT3=
EXTT4=
EXTT5=
EXTT6=
EXTT7=
EXTT8=
EXTT9=
EXTT10=
EXTT11=
PLAYORDER=
